<svg width="83" height="111" viewBox="0 0 83 111" fill="none" xmlns="http://www.w3.org/2000/svg">
<g clip-path="url(#clip0_4807_84633)">
<path d="M32.319 17.2416L24.9863 29.8876H39.6517L32.319 17.2416Z" fill="white"/>
<path d="M18.983 0.460327L9.47461 16.8801V29.8875H24.4221V16.7998L33.8901 0.460327H18.983Z" fill="white"/>
<path d="M40.2158 59.9169H56.9361L40.2158 31.0518V59.9169Z" fill="white"/>
<path d="M24.4624 30.4895H9.47461V59.9166H24.4624V30.4895Z" fill="white"/>
<path d="M67.8549 30.4895C59.7162 30.4895 53.0684 37.1136 53.0684 45.2232C53.0684 53.3327 59.7162 59.9568 67.8549 59.9568C75.993 59.9568 82.6408 53.3327 82.6408 45.2232C82.6408 37.0735 76.0336 30.4895 67.8549 30.4895Z" fill="white"/>
<path d="M25.0264 30.4895V59.9166C33.1649 59.9166 39.8127 53.2925 39.8127 45.183C39.8127 37.0735 33.1649 30.4895 25.0264 30.4895Z" fill="white"/>
<path d="M40.3366 29.8874H58.8699L41.9483 0.661011L32.6816 16.6793L40.3366 29.8874Z" fill="white"/>
<path d="M40.5781 30.4895L48.7972 44.7013C51.8592 43.7779 53.9543 40.9677 53.9543 37.756C53.9543 33.7413 50.6908 30.4895 46.6619 30.4895H40.5781Z" fill="white"/>
<path d="M0.00585938 0.460327L9.15159 16.2779L18.2973 0.460327H0.00585938Z" fill="white"/>
<path fill-rule="evenodd" clip-rule="evenodd" d="M9.47461 70.2141V80.5039H17.3015C18.2476 80.5039 18.9984 80.3188 19.5538 79.9488C19.9651 79.6706 20.2788 79.3107 20.4948 78.8685C20.7211 78.4161 20.8342 77.9428 20.8342 77.4492C20.8342 76.5031 20.5102 75.7475 19.8623 75.1817C19.2453 74.6368 18.3865 74.364 17.286 74.364H11.0482V71.6949H18.4657V70.2141H9.47461ZM11.0482 79.0231V75.8448H17.2552C18.006 75.8448 18.5305 76.0042 18.8287 76.3235C19.1372 76.6315 19.2915 77.0123 19.2915 77.4647C19.2915 78.5038 18.6025 79.0231 17.2243 79.0231H11.0482ZM22.9381 70.2141H21.0251L24.6812 77.5882L23.3545 80.5039H24.9898L29.6332 70.2141H27.998L25.5914 75.7063L22.9381 70.2141ZM31.34 70.2141H37.7251V79.0231H38.8975V81.9823H37.4165V80.5039H30.8155V81.9823H29.3345V79.0231C29.6842 79.0332 30.003 78.9097 30.291 78.6524C30.579 78.385 30.8052 78.046 30.9698 77.6342C31.2166 77.0069 31.34 76.1074 31.34 74.9346V70.2141ZM32.9136 71.6949V74.9346C32.9136 76.2202 32.7953 77.177 32.5587 77.8043C32.3736 78.277 32.1062 78.6835 31.7566 79.0231H36.1516V71.6949H32.9136ZM41.2785 70.2141H39.3655L43.0216 77.5882L41.6949 80.5039H43.3302L47.9736 70.2141H46.3384L43.9318 75.7063L41.2785 70.2141ZM49.3908 80.5039V70.2141H50.9644V79.0231H53.94V70.2141H55.5136V79.0231L60.5749 79.026V70.2177H62.1482V79.026H63.475V81.9852H61.9942V80.5068L49.3908 80.5039ZM70.8354 71.6985V70.2177H65.4142V80.5068H70.8354V79.026H66.9881V75.7863H70.7124V74.3055H66.9881V71.6985H70.8354ZM82.6429 70.2177V71.6985H74.7012V74.3055H82.5194V75.7863H74.7012V79.026H82.6429V80.5068H73.1279V70.2177H82.6429ZM11.0328 85.1444H9.47461V95.4341H14.4386C15.7241 95.4341 16.6857 95.0999 17.3233 94.4314C17.7759 93.948 18.0021 93.3308 18.0021 92.58C18.0021 91.7677 17.7759 91.1249 17.3233 90.6515C16.9737 90.2916 16.5314 90.0451 15.9967 89.9114C16.3258 89.7569 16.5829 89.5205 16.768 89.2018C16.9736 88.8723 17.0765 88.4665 17.0765 87.983C17.0765 87.1397 16.804 86.461 16.2589 85.9466C15.9298 85.638 15.5493 85.4273 15.1173 85.3139C14.6854 85.2011 11.7321 85.1444 11.0328 85.1444ZM11.0482 89.5718V86.6252H13.9758C14.5414 86.6252 14.9579 86.7541 15.2253 87.0107C15.4721 87.2477 15.5956 87.5766 15.5956 87.9985C15.5956 88.5226 15.4619 88.9135 15.1944 89.1708C14.9168 89.4381 14.49 89.5718 13.9141 89.5718H11.0482ZM11.0482 93.9527V90.8676H14.4231C15.1842 90.8676 15.7241 91.0222 16.0429 91.3308C16.3206 91.6083 16.4595 91.9682 16.4595 92.4105C16.4595 92.9041 16.2898 93.2843 15.9503 93.5517C15.6212 93.819 15.1019 93.9527 14.3923 93.9527H11.0482ZM24.9598 85.1444V89.2173H32.3054V85.1444H33.8789V95.4341H32.3054V90.6981H24.9598V95.4341H23.3863V85.1444H24.9598ZM42.5076 92.95L43.5875 95.4341H45.2844L40.4096 84.5428L35.2879 95.4341H36.9849L38.111 92.95H42.5076ZM41.8751 91.4692H38.7589L40.3479 87.983L41.8751 91.4692ZM46.7191 95.4341V85.1444H48.2926V93.9527H52.2015V85.1444H53.775V93.9527H59.6933V85.1444H61.2666V95.4341H46.7191ZM71.0061 88.5077V95.4341H72.5794V84.7123L65.6374 92.1019V85.1444H64.0641V95.8967L71.0061 88.5077ZM74.5293 95.4341L77.769 90.0654L74.9304 85.1444H76.6887L78.6942 88.6306L80.7461 85.1444H82.5045L79.5429 90.0654L82.6435 95.4341H80.8852L78.6327 91.5003L76.2877 95.4341H74.5293ZM17.3276 100.082H9.47461V110.372H11.0482V106.191H17.343C18.3921 106.191 19.2303 105.924 19.8576 105.389C20.5261 104.813 20.8604 104.062 20.8604 103.137C20.8604 102.643 20.7473 102.175 20.521 101.733C20.305 101.28 19.9913 100.915 19.5799 100.637C19.0246 100.267 18.2738 100.082 17.3276 100.082ZM11.0482 104.741V101.532H17.3276C17.7493 101.532 18.1041 101.589 18.3921 101.702C18.6801 101.805 18.8857 101.949 19.0092 102.134C19.1429 102.309 19.2303 102.473 19.2714 102.627C19.3228 102.782 19.3485 102.946 19.3485 103.121C19.3485 103.615 19.1788 104.011 18.8395 104.309C18.5 104.597 18.0013 104.741 17.343 104.741H11.0482ZM21.5947 100.082H23.5076L26.161 105.574L28.5676 100.082H30.2028L25.5594 110.372H23.9241L25.2508 107.456L21.5947 100.082ZM47.9837 107.888L49.0636 110.372H50.7605L45.8857 99.4802L40.7641 110.372H42.4609L43.5872 107.888H47.9837ZM47.3513 106.407H44.235L45.824 102.92L47.3513 106.407ZM50.9804 110.372L54.22 105.003L51.3815 100.082H53.1401L55.1456 103.569L57.1974 100.082H58.956L55.9941 105.003L59.0948 110.372H57.3362L55.0839 106.438L52.7391 110.372H50.9804ZM33.145 100.08H31.5712L31.5717 110.37H33.145V107.142L34.4774 105.804L38.1474 110.37H40.246L35.5717 104.74L40.2147 100.081H38.1478L33.145 105.238V100.08Z" fill="white"/>
</g>
<defs>
<clipPath id="clip0_4807_84633">
<rect width="82.6641" height="110" fill="white" transform="translate(0 0.416992)"/>
</clipPath>
</defs>
</svg>
