<svg width="57" height="41" viewBox="0 0 57 41" fill="none" xmlns="http://www.w3.org/2000/svg">
<path d="M22.6349 12.1948L17.7227 20.6969H27.5472L22.6349 12.1948Z" fill="white"/>
<path d="M13.7008 0.912598L7.33105 11.9517V20.6967H17.3446V11.8978L23.6873 0.912598H13.7008Z" fill="white"/>
<path d="M27.9248 40.8857H39.1259L27.9248 21.4795V40.8857Z" fill="white"/>
<path d="M17.3715 21.1016H7.33105V40.8856H17.3715V21.1016Z" fill="white"/>
<path d="M46.4407 21.1016C40.9886 21.1016 36.5352 25.555 36.5352 31.0071C36.5352 36.4592 40.9886 40.9126 46.4407 40.9126C51.8928 40.9126 56.3462 36.4592 56.3462 31.0071C56.3462 25.528 51.9198 21.1016 46.4407 21.1016Z" fill="white"/>
<path d="M17.749 21.1016V40.8856C23.2011 40.8856 27.6546 36.4322 27.6546 30.9801C27.6546 25.528 23.2011 21.1016 17.749 21.1016Z" fill="white"/>
<path d="M28.0061 20.6965H40.4218L29.0858 1.04736L22.8779 11.8166L28.0061 20.6965Z" fill="white"/>
<path d="M28.168 21.1016L33.674 30.6562C35.7253 30.0354 37.1288 28.1461 37.1288 25.9869C37.1288 23.2878 34.9426 21.1016 32.2435 21.1016H28.168Z" fill="white"/>
<path d="M0.988281 0.912598L7.11514 11.5469L13.242 0.912598H0.988281Z" fill="white"/>
</svg>
